<svg width="106" height="17" viewBox="0 0 106 17" fill="none" xmlns="http://www.w3.org/2000/svg">
<g clip-path="url(#clip0_0_1412)">
<path fill-rule="evenodd" clip-rule="evenodd" d="M8.98882 12.9981L3.83207 16.3772L5.45221 10.4286L0.64502 6.56842L6.80308 6.27107L8.98882 0.506287L11.1746 6.27107L17.3326 6.56842L12.5254 10.4286L14.1456 16.3772L8.98882 12.9981Z" fill="#FFC54F"/>
</g>
<g clip-path="url(#clip1_0_1412)">
<path fill-rule="evenodd" clip-rule="evenodd" d="M31.0201 12.9982L25.8633 16.3772L27.4835 10.4287L22.6763 6.56849L28.8343 6.27113L31.0201 0.506348L33.2058 6.27113L39.3639 6.56849L34.5567 10.4287L36.1768 16.3772L31.0201 12.9982Z" fill="#FFC54F"/>
</g>
<g clip-path="url(#clip2_0_1412)">
<path fill-rule="evenodd" clip-rule="evenodd" d="M53.0362 12.9982L47.8794 16.3772L49.4996 10.4287L44.6924 6.56849L50.8504 6.27113L53.0362 0.506348L55.2219 6.27113L61.38 6.56849L56.5728 10.4287L58.1929 16.3772L53.0362 12.9982Z" fill="#FFC54F"/>
</g>
<g clip-path="url(#clip3_0_1412)">
<path fill-rule="evenodd" clip-rule="evenodd" d="M75.044 12.9982L69.8872 16.3772L71.5074 10.4287L66.7002 6.56849L72.8583 6.27113L75.044 0.506348L77.2297 6.27113L83.3878 6.56849L78.5806 10.4287L80.2007 16.3772L75.044 12.9982Z" fill="#FFC54F"/>
</g>
<g clip-path="url(#clip4_0_1412)">
<path fill-rule="evenodd" clip-rule="evenodd" d="M97.0752 12.9982L91.9185 16.3772L93.5386 10.4287L88.7314 6.56849L94.8895 6.27113L97.0752 0.506348L99.261 6.27113L105.419 6.56849L100.612 10.4287L102.232 16.3772L97.0752 12.9982Z" fill="#FFC54F"/>
</g>
<defs>
<clipPath id="clip0_0_1412">
<rect width="17.5464" height="16.0842" fill="white" transform="translate(0.236328 0.503052)"/>
</clipPath>
<clipPath id="clip1_0_1412">
<rect width="17.5464" height="16.0842" fill="white" transform="translate(22.252 0.503052)"/>
</clipPath>
<clipPath id="clip2_0_1412">
<rect width="17.5464" height="16.0842" fill="white" transform="translate(44.2676 0.503052)"/>
</clipPath>
<clipPath id="clip3_0_1412">
<rect width="17.5464" height="16.0842" fill="white" transform="translate(66.2832 0.503052)"/>
</clipPath>
<clipPath id="clip4_0_1412">
<rect width="17.5464" height="16.0842" fill="white" transform="translate(88.2988 0.503052)"/>
</clipPath>
</defs>
</svg>
