<svg width="106" height="17" viewBox="0 0 106 17" fill="none" xmlns="http://www.w3.org/2000/svg">
<g clip-path="url(#clip0_0_1448)">
<path fill-rule="evenodd" clip-rule="evenodd" d="M8.98199 13.3536L3.82523 16.7326L5.44537 10.7841L0.638184 6.92389L6.79624 6.62654L8.98199 0.861755L11.1677 6.62654L17.3258 6.92389L12.5186 10.7841L14.1387 16.7326L8.98199 13.3536Z" fill="#FFC54F"/>
</g>
<g clip-path="url(#clip1_0_1448)">
<path fill-rule="evenodd" clip-rule="evenodd" d="M31.0015 13.3536L25.8448 16.7326L27.4649 10.7841L22.6577 6.92389L28.8158 6.62654L31.0015 0.861755L33.1873 6.62654L39.3453 6.92389L34.5381 10.7841L36.1583 16.7326L31.0015 13.3536Z" fill="#FFC54F"/>
</g>
<g clip-path="url(#clip2_0_1448)">
<path fill-rule="evenodd" clip-rule="evenodd" d="M53.0098 13.3536L47.8531 16.7326L49.4732 10.7841L44.666 6.92389L50.8241 6.62654L53.0098 0.861755L55.1956 6.62654L61.3536 6.92389L56.5464 10.7841L58.1666 16.7326L53.0098 13.3536Z" fill="#FFC54F"/>
</g>
<g clip-path="url(#clip3_0_1448)">
<path fill-rule="evenodd" clip-rule="evenodd" d="M75.0372 13.3536L69.8804 16.7326L71.5006 10.7841L66.6934 6.92389L72.8514 6.62654L75.0372 0.861755L77.2229 6.62654L83.381 6.92389L78.5738 10.7841L80.1939 16.7326L75.0372 13.3536Z" fill="#FFC54F"/>
</g>
<g clip-path="url(#clip4_0_1448)">
<path fill-rule="evenodd" clip-rule="evenodd" d="M97.045 13.3536L91.8882 16.7326L93.5084 10.7841L88.7012 6.92389L94.8592 6.62654L97.045 0.861755L99.2307 6.62654L105.389 6.92389L100.582 10.7841L102.202 16.7326L97.045 13.3536Z" fill="#FFC54F"/>
</g>
<defs>
<clipPath id="clip0_0_1448">
<rect width="17.5464" height="16.0842" fill="white" transform="translate(0.217285 0.874146)"/>
</clipPath>
<clipPath id="clip1_0_1448">
<rect width="17.5464" height="16.0842" fill="white" transform="translate(22.2329 0.874146)"/>
</clipPath>
<clipPath id="clip2_0_1448">
<rect width="17.5464" height="16.0842" fill="white" transform="translate(44.2485 0.874146)"/>
</clipPath>
<clipPath id="clip3_0_1448">
<rect width="17.5464" height="16.0842" fill="white" transform="translate(66.2642 0.874146)"/>
</clipPath>
<clipPath id="clip4_0_1448">
<rect width="17.5464" height="16.0842" fill="white" transform="translate(88.2798 0.874146)"/>
</clipPath>
</defs>
</svg>
