<svg width="24" height="23" viewBox="0 0 24 23" fill="none" xmlns="http://www.w3.org/2000/svg">
<g clip-path="url(#clip0_0_1266)">
<path d="M12.2251 1C6.01193 1 0.975098 6.03692 0.975098 12.25C0.975098 18.4635 6.01202 23.5 12.2251 23.5C18.4387 23.5 23.4751 18.4635 23.4751 12.25C23.4751 6.03736 18.4389 1 12.2251 1ZM17.3842 17.2258C17.1827 17.5563 16.7501 17.6611 16.4196 17.4582C13.7782 15.8448 10.4531 15.4794 6.53717 16.3741C6.35583 16.4154 6.16553 16.3829 6.0081 16.2839C5.85067 16.1849 5.739 16.0274 5.69764 15.8461C5.67703 15.7564 5.67432 15.6634 5.68968 15.5726C5.70504 15.4818 5.73816 15.3949 5.78714 15.3169C5.83613 15.2389 5.90001 15.1714 5.97514 15.1181C6.05027 15.0648 6.13517 15.0269 6.22498 15.0065C10.5105 14.0274 14.1864 14.4489 17.1518 16.2612C17.4823 16.4641 17.587 16.8954 17.3842 17.2258ZM18.7612 14.1626C18.5072 14.5752 17.9672 14.7056 17.5548 14.4517C14.5308 12.5929 9.92122 12.0546 6.34451 13.1403C5.88062 13.2804 5.39072 13.019 5.24992 12.5559C5.11018 12.0921 5.37174 11.603 5.83483 11.4621C9.92043 10.2223 14.9996 10.8228 18.4724 12.9568C18.8847 13.2108 19.0151 13.7507 18.7612 14.1626ZM18.8794 10.9728C15.2535 8.8191 9.27145 8.621 5.8097 9.67182C5.25379 9.84039 4.66589 9.52653 4.49749 8.97062C4.329 8.41445 4.64251 7.82699 5.19886 7.65798C9.17266 6.45159 15.7789 6.68477 19.9532 9.16293C20.4544 9.45965 20.6182 10.1055 20.3213 10.6048C20.0258 11.1049 19.3777 11.2697 18.8794 10.9728Z" fill="#1ED760"/>
</g>
<defs>
<clipPath id="clip0_0_1266">
<rect width="22.5" height="22.5" fill="white" transform="translate(0.850098 0.5)"/>
</clipPath>
</defs>
</svg>
